<?xml version="1.0" standalone="no"?>
<!DOCTYPE svg PUBLIC "-//W3C//DTD SVG 20010904//EN"
 "http://www.w3.org/TR/2001/REC-SVG-20010904/DTD/svg10.dtd">
<svg version="1.0" xmlns="http://www.w3.org/2000/svg"
 width="256.000000pt" height="256.000000pt" viewBox="0 0 256.000000 256.000000"
 preserveAspectRatio="xMidYMid meet">
<metadata>
Created by potrace 1.11, written by Peter Selinger 2001-2013
</metadata>
<g transform="translate(0.000000,256.000000) scale(0.100000,-0.100000)"
fill="#000000" stroke="none">
<path d="M1810 2495 c-87 -28 -152 -121 -152 -218 0 -35 8 -66 30 -108 l31
-60 -100 -166 c-109 -181 -107 -170 -38 -211 l35 -21 102 172 102 172 55 -3
c45 -3 67 1 109 22 172 84 174 324 4 412 -43 22 -125 26 -178 9z"/>
<path d="M510 2159 c-55 -25 -75 -43 -107 -93 -30 -47 -40 -128 -23 -182 40
-125 177 -194 296 -149 l46 17 30 -28 c17 -16 51 -48 76 -72 l45 -43 39 38
c37 36 47 58 29 65 -5 2 -39 31 -74 65 l-65 63 15 42 c18 52 12 121 -15 175
-54 105 -185 151 -292 102z"/>
<path d="M1260 1682 c-205 -18 -364 -202 -354 -409 14 -287 310 -461 569 -334
133 66 217 202 216 352 -1 232 -199 411 -431 391z"/>
<path d="M2256 1406 c-51 -19 -106 -65 -125 -105 l-16 -32 -72 6 c-66 5 -110
10 -185 20 -19 2 -28 -1 -28 -11 0 -8 -1 -17 -2 -21 -1 -5 -5 -24 -8 -44 l-7
-37 46 -6 c25 -3 79 -8 120 -12 109 -10 124 -15 133 -50 11 -43 75 -114 122
-135 53 -24 139 -24 192 0 85 39 143 146 130 241 -19 139 -171 233 -300 186z"/>
<path d="M600 1119 l-174 -59 -36 34 c-86 85 -216 89 -307 11 -51 -44 -76 -95
-79 -164 -10 -246 328 -331 432 -108 13 29 24 66 24 84 l0 31 158 52 c86 29
167 56 178 61 21 7 21 8 4 58 -9 28 -19 53 -21 55 -2 2 -83 -23 -179 -55z"/>
<path d="M1407 777 c-45 -10 -48 -13 -43 -36 3 -14 17 -76 31 -138 l25 -112
-48 -48 c-79 -79 -94 -192 -38 -282 48 -75 117 -111 207 -107 92 4 161 53 200
141 34 77 10 194 -53 252 -28 26 -105 62 -133 63 -18 0 -24 14 -44 113 -27
124 -40 168 -49 166 -4 -1 -29 -6 -55 -12z"/>
</g>
</svg>
