<svg version="1" xmlns="http://www.w3.org/2000/svg" width="341.333" height="341.333" viewBox="0 0 256.000000 256.000000"><path d="M181 6.5c-8.7 2.8-15.2 12.1-15.2 21.8 0 3.5.8 6.6 3 10.8l3.1 6-10 16.6c-10.9 18.1-10.7 17-3.8 21.1l3.5 2.1 10.2-17.2L182 50.5l5.5.3c4.5.3 6.7-.1 10.9-2.2 17.2-8.4 17.4-32.4.4-41.2-4.3-2.2-12.5-2.6-17.8-.9zM51 40.1c-5.5 2.5-7.5 4.3-10.7 9.3-3 4.7-4 12.8-2.3 18.2C42 80.1 55.7 87 67.6 82.5l4.6-1.7 3 2.8c1.7 1.6 5.1 4.8 7.6 7.2l4.5 4.3 3.9-3.8c3.7-3.6 4.7-5.8 2.9-6.5-.5-.2-3.9-3.1-7.4-6.5L80.2 72l1.5-4.2c1.8-5.2 1.2-12.1-1.5-17.5C74.8 39.8 61.7 35.2 51 40.1zM126 87.8c-20.5 1.8-36.4 20.2-35.4 40.9 1.4 28.7 31 46.1 56.9 33.4 13.3-6.6 21.7-20.2 21.6-35.2-.1-23.2-19.9-41.1-43.1-39.1zM225.6 115.4c-5.1 1.9-10.6 6.5-12.5 10.5l-1.6 3.2-7.2-.6c-6.6-.5-11-1-18.5-2-1.9-.2-2.8.1-2.8 1.1 0 .8-.1 1.7-.2 2.1-.1.5-.5 2.4-.8 4.4l-.7 3.7 4.6.6c2.5.3 7.9.8 12 1.2 10.9 1 12.4 1.5 13.3 5 1.1 4.3 7.5 11.4 12.2 13.5 5.3 2.4 13.9 2.4 19.2 0 8.5-3.9 14.3-14.6 13-24.1-1.9-13.9-17.1-23.3-30-18.6zM60 144.1L42.6 150l-3.6-3.4c-8.6-8.5-21.6-8.9-30.7-1.1-5.1 4.4-7.6 9.5-7.9 16.4-1 24.6 32.8 33.1 43.2 10.8 1.3-2.9 2.4-6.6 2.4-8.4v-3.1l15.8-5.2c8.6-2.9 16.7-5.6 17.8-6.1 2.1-.7 2.1-.8.4-5.8-.9-2.8-1.9-5.3-2.1-5.5-.2-.2-8.3 2.3-17.9 5.5zM140.7 178.3c-4.5 1-4.8 1.3-4.3 3.6.3 1.4 1.7 7.6 3.1 13.8l2.5 11.2-4.8 4.8c-7.9 7.9-9.4 19.2-3.8 28.2 4.8 7.5 11.7 11.1 20.7 10.7 9.2-.4 16.1-5.3 20-14.1 3.4-7.7 1-19.4-5.3-25.2-2.8-2.6-10.5-6.2-13.3-6.3-1.8 0-2.4-1.4-4.4-11.3-2.7-12.4-4-16.8-4.9-16.6-.4.1-2.9.6-5.5 1.2z"/></svg>